<svg class="lds-spinner" width="40px"  height="40px"  xmlns="http://www.w3.org/2000/svg" xmlns:xlink="http://www.w3.org/1999/xlink" viewBox="0 0 100 100" preserveAspectRatio="xMidYMid" style="background: none;"><g transform="rotate(0 50 50)">
  <rect x="46" y="6.5" rx="2.3000000000000003" ry="0.325" width="8" height="7" fill="#506380">
    <animate attributeName="opacity" values="1;0" times="0;1" dur="0.7s" begin="-0.65s" repeatCount="indefinite"></animate>
  </rect>
</g><g transform="rotate(25.714285714285715 50 50)">
  <rect x="46" y="6.5" rx="2.3000000000000003" ry="0.325" width="8" height="7" fill="#506380">
    <animate attributeName="opacity" values="1;0" times="0;1" dur="0.7s" begin="-0.5999999999999999s" repeatCount="indefinite"></animate>
  </rect>
</g><g transform="rotate(51.42857142857143 50 50)">
  <rect x="46" y="6.5" rx="2.3000000000000003" ry="0.325" width="8" height="7" fill="#506380">
    <animate attributeName="opacity" values="1;0" times="0;1" dur="0.7s" begin="-0.5499999999999999s" repeatCount="indefinite"></animate>
  </rect>
</g><g transform="rotate(77.14285714285714 50 50)">
  <rect x="46" y="6.5" rx="2.3000000000000003" ry="0.325" width="8" height="7" fill="#506380">
    <animate attributeName="opacity" values="1;0" times="0;1" dur="0.7s" begin="-0.5s" repeatCount="indefinite"></animate>
  </rect>
</g><g transform="rotate(102.85714285714286 50 50)">
  <rect x="46" y="6.5" rx="2.3000000000000003" ry="0.325" width="8" height="7" fill="#506380">
    <animate attributeName="opacity" values="1;0" times="0;1" dur="0.7s" begin="-0.45s" repeatCount="indefinite"></animate>
  </rect>
</g><g transform="rotate(128.57142857142858 50 50)">
  <rect x="46" y="6.5" rx="2.3000000000000003" ry="0.325" width="8" height="7" fill="#506380">
    <animate attributeName="opacity" values="1;0" times="0;1" dur="0.7s" begin="-0.39999999999999997s" repeatCount="indefinite"></animate>
  </rect>
</g><g transform="rotate(154.28571428571428 50 50)">
  <rect x="46" y="6.5" rx="2.3000000000000003" ry="0.325" width="8" height="7" fill="#506380">
    <animate attributeName="opacity" values="1;0" times="0;1" dur="0.7s" begin="-0.35s" repeatCount="indefinite"></animate>
  </rect>
</g><g transform="rotate(180 50 50)">
  <rect x="46" y="6.5" rx="2.3000000000000003" ry="0.325" width="8" height="7" fill="#506380">
    <animate attributeName="opacity" values="1;0" times="0;1" dur="0.7s" begin="-0.29999999999999993s" repeatCount="indefinite"></animate>
  </rect>
</g><g transform="rotate(205.71428571428572 50 50)">
  <rect x="46" y="6.5" rx="2.3000000000000003" ry="0.325" width="8" height="7" fill="#506380">
    <animate attributeName="opacity" values="1;0" times="0;1" dur="0.7s" begin="-0.25s" repeatCount="indefinite"></animate>
  </rect>
</g><g transform="rotate(231.42857142857142 50 50)">
  <rect x="46" y="6.5" rx="2.3000000000000003" ry="0.325" width="8" height="7" fill="#506380">
    <animate attributeName="opacity" values="1;0" times="0;1" dur="0.7s" begin="-0.19999999999999998s" repeatCount="indefinite"></animate>
  </rect>
</g><g transform="rotate(257.14285714285717 50 50)">
  <rect x="46" y="6.5" rx="2.3000000000000003" ry="0.325" width="8" height="7" fill="#506380">
    <animate attributeName="opacity" values="1;0" times="0;1" dur="0.7s" begin="-0.14999999999999997s" repeatCount="indefinite"></animate>
  </rect>
</g><g transform="rotate(282.85714285714283 50 50)">
  <rect x="46" y="6.5" rx="2.3000000000000003" ry="0.325" width="8" height="7" fill="#506380">
    <animate attributeName="opacity" values="1;0" times="0;1" dur="0.7s" begin="-0.09999999999999999s" repeatCount="indefinite"></animate>
  </rect>
</g><g transform="rotate(308.57142857142856 50 50)">
  <rect x="46" y="6.5" rx="2.3000000000000003" ry="0.325" width="8" height="7" fill="#506380">
    <animate attributeName="opacity" values="1;0" times="0;1" dur="0.7s" begin="-0.049999999999999996s" repeatCount="indefinite"></animate>
  </rect>
</g><g transform="rotate(334.2857142857143 50 50)">
  <rect x="46" y="6.5" rx="2.3000000000000003" ry="0.325" width="8" height="7" fill="#506380">
    <animate attributeName="opacity" values="1;0" times="0;1" dur="0.7s" begin="0s" repeatCount="indefinite"></animate>
  </rect>
</g></svg>